# xmcd CD database file
#
# Track frame offsets:
#	150
#	14148
#	24021
#	34044
#	44367
#	57390
#	68763
#	80061
#	89859
#	98007
#	109455
#	120003
#	132726
#	144849
#	154947
#	169920
#	187068
#	198141
#	207189
#	217512
#	229185
#	238833
#	249531
#	259629
#
# Disc length: 3643 seconds
#
# Revision: 0
# Processed by: cddbd v1.5.2PL0 Copyright (c) Steve Scherf et al.
# Submitted via: CDex 1.70beta2
#
DISCID=520e3918
DTITLE=TItNS - USA - Cty - This Is the Nashville Sound
DYEAR=1900
DGENRE=Country
TTITLE0=Muloe Skinner Blues - Dolly Parton
TTITLE1=Is Anyone Going To San Antone - Charley Pride
TTITLE2=Snowbird - Chet Atkins
TTITLE3=The Taker - Waylon Jennings
TTITLE4=I Never Stopped Loving you - Connie Smith
TTITLE5=Sweet Thang and Cisco - Nat Stuckey
TTITLE6=Forever Yours - Dottie West
TTITLE7=Biloxi - Kenny Price
TTITLE8=Columbus Stockade Blues - Dannhy Davis and Nashville Brass
TTITLE9=She's A Little Bit Country - George Hamilton IV
TTITLE10=Just Someone I Used To Know - Porter Wagoner and Dolly Parton
TTITLE11=The Birthmark Henry Thompson Talks About - Dallas Frazier
TTITLE12=From Heaven to Heartache - Eddey Arnold
TTITLE13=I.m a Lover (Not A Fighter) - Skeeter Davis
TTITLE14=For the Good Times - Floyd Cramer
TTITLE15=Come the Morning - HankSnow
TTITLE16=Bless Her Heart - Hank Locklin
TTITLE17=Slowly - Jimmy Dean and Dottie West
TTITLE18=Amos Moses - Jerry Reed
TTITLE19=One More With Feeling - Willie Nelson
TTITLE20=Strolling - The NashvilleBand
TTITLE21=Angles Don 't Lie - Jim Reeves
TTITLE22=Whisly-Six Years Old - Norma Jean
TTITLE23=Morning - Jim Ed Brown
EXTD=
EXTT0=
EXTT1=
EXTT2=
EXTT3=
EXTT4=
EXTT5=
EXTT6=
EXTT7=
EXTT8=
EXTT9=
EXTT10=
EXTT11=
EXTT12=
EXTT13=
EXTT14=
EXTT15=
EXTT16=
EXTT17=
EXTT18=
EXTT19=
EXTT20=
EXTT21=
EXTT22=
EXTT23=
PLAYORDER=
